<?xml version="1.0" encoding="utf-8"?>
<!-- Generator: Adobe Illustrator 19.2.1, SVG Export Plug-In . SVG Version: 6.00 Build 0)  -->
<svg version="1.1" id="Calque_1" xmlns="http://www.w3.org/2000/svg" xmlns:xlink="http://www.w3.org/1999/xlink" x="0px" y="0px"
	 viewBox="0 0 100 125" style="enable-background:new 0 0 100 125;" xml:space="preserve">
<metadata><?xpacket begin="﻿" id="W5M0MpCehiHzreSzNTczkc9d"?>
<x:xmpmeta xmlns:x="adobe:ns:meta/" x:xmptk="Adobe XMP Core 5.6-c111 79.158366, 2015/09/25-01:12:00        ">
   <rdf:RDF xmlns:rdf="http://www.w3.org/1999/02/22-rdf-syntax-ns#">
      <rdf:Description rdf:about=""/>
   </rdf:RDF>
</x:xmpmeta>
                                                                                                    
                                                                                                    
                                                                                                    
                                                                                                    
                                                                                                    
                                                                                                    
                                                                                                    
                                                                                                    
                                                                                                    
                                                                                                    
                                                                                                    
                                                                                                    
                                                                                                    
                                                                                                    
                                                                                                    
                                                                                                    
                                                                                                    
                                                                                                    
                                                                                                    
                                                                                                    
                           
<?xpacket end="w"?></metadata>
<path d="M87.8,38.4C87.8,38.4,87.8,38.4,87.8,38.4C87.8,38.4,87.7,38.4,87.8,38.4C87.7,38.4,87.7,38.4,87.8,38.4
	c-0.8,0-1.4,0.2-2,0.7v-7.3c0-3.3-2.6-6-6-6c0,0,0,0,0,0s0,0,0,0c0,0,0,0,0,0c-3.3,0-6,2.7-6,6v12.7H26.3V31.8c0-3.3-2.7-6-6-6
	c0,0,0,0,0,0c0,0,0,0,0,0c0,0,0,0,0,0c-3.3,0-6,2.7-6,6v7.3c-0.6-0.4-1.2-0.7-1.9-0.7c0,0,0,0,0,0c0,0,0,0,0,0c0,0,0,0,0,0
	c-1.6,0-3,1.3-3,3v17.1c0,1.6,1.4,3.1,3,3.1c0,0,0,0,0,0h0c0,0,0,0,0,0c0.7,0,1.4-0.3,1.9-0.7v7.4c0,3.3,2.7,6,6,6c0,0,0,0,0,0h0
	c0,0,0,0,0,0c3.3,0,6-2.7,6-6V55.5h47.4v12.7c0,3.3,2.7,6,6,6c0,0,0,0,0,0h0c0,0,0,0,0,0c0,0,0,0,0,0c3.3,0,6-2.7,6-6v-7.4
	c0.6,0.4,1.2,0.7,1.9,0.7c0,0,0,0,0,0h0c0,0,0,0,0,0c0,0,0,0,0,0c1.6,0,3-1.4,3-3.1V41.4C90.8,39.8,89.4,38.4,87.8,38.4z"/>
</svg>
